<svg xmlns="http://www.w3.org/2000/svg" xmlns:xlink="http://www.w3.org/1999/xlink" width="794" zoomAndPan="magnify" viewBox="0 0 595.5 842.249979" height="1123" preserveAspectRatio="xMidYMid meet" version="1.0"><defs><filter x="0%" y="0%" width="100%" height="100%" id="fd8860749c"><feColorMatrix values="0 0 0 0 1 0 0 0 0 1 0 0 0 0 1 0 0 0 1 0" color-interpolation-filters="sRGB"/></filter><clipPath id="c7c769bb3f"><path d="M 0.015625 0 L 594.984375 0 L 594.984375 841.5 L 0.015625 841.5 Z M 0.015625 0 " clip-rule="nonzero"/></clipPath><clipPath id="4d9c4c56fa"><path d="M 0.015625 12 L 594.984375 12 L 594.984375 813 L 0.015625 813 Z M 0.015625 12 " clip-rule="nonzero"/></clipPath><mask id="64beb9b6e1"><g filter="url(#fd8860749c)"><rect x="-59.55" width="714.6" fill="#000000" y="-84.224998" height="1010.699974" fill-opacity="0.05"/></g></mask><clipPath id="f2ae01c5b5"><path d="M 51 4.945312 L 80 4.945312 L 80 29 L 51 29 Z M 51 4.945312 " clip-rule="nonzero"/></clipPath><clipPath id="ae225850dc"><path d="M 131 4.945312 L 159 4.945312 L 159 29 L 131 29 Z M 131 4.945312 " clip-rule="nonzero"/></clipPath><clipPath id="16c26cb4ec"><path d="M 211 4.945312 L 239 4.945312 L 239 29 L 211 29 Z M 211 4.945312 " clip-rule="nonzero"/></clipPath><clipPath id="960bf0ccb5"><path d="M 291 4.945312 L 319 4.945312 L 319 29 L 291 29 Z M 291 4.945312 " clip-rule="nonzero"/></clipPath><clipPath id="404d5c21a9"><path d="M 370 4.945312 L 399 4.945312 L 399 29 L 370 29 Z M 370 4.945312 " clip-rule="nonzero"/></clipPath><clipPath id="f689b7e954"><path d="M 450 4.945312 L 478 4.945312 L 478 29 L 450 29 Z M 450 4.945312 " clip-rule="nonzero"/></clipPath><clipPath id="d273a62546"><path d="M 530 4.945312 L 558 4.945312 L 558 29 L 530 29 Z M 530 4.945312 " clip-rule="nonzero"/></clipPath><clipPath id="734e382265"><path d="M 569 32 L 594.984375 32 L 594.984375 59 L 569 59 Z M 569 32 " clip-rule="nonzero"/></clipPath><clipPath id="f0b95daadb"><path d="M 569 91 L 594.984375 91 L 594.984375 118 L 569 118 Z M 569 91 " clip-rule="nonzero"/></clipPath><clipPath id="bbcf238f0c"><path d="M 569 150 L 594.984375 150 L 594.984375 177 L 569 177 Z M 569 150 " clip-rule="nonzero"/></clipPath><clipPath id="0fcb5af88c"><path d="M 569 209 L 594.984375 209 L 594.984375 236 L 569 236 Z M 569 209 " clip-rule="nonzero"/></clipPath><clipPath id="3d54a0f7ca"><path d="M 569 269 L 594.984375 269 L 594.984375 296 L 569 296 Z M 569 269 " clip-rule="nonzero"/></clipPath><clipPath id="00723e05e3"><path d="M 569 328 L 594.984375 328 L 594.984375 355 L 569 355 Z M 569 328 " clip-rule="nonzero"/></clipPath><clipPath id="54a04ee593"><path d="M 569 387 L 594.984375 387 L 594.984375 414 L 569 414 Z M 569 387 " clip-rule="nonzero"/></clipPath><clipPath id="d03c6853f2"><path d="M 569 446 L 594.984375 446 L 594.984375 473 L 569 473 Z M 569 446 " clip-rule="nonzero"/></clipPath><clipPath id="839cb11374"><path d="M 569 505 L 594.984375 505 L 594.984375 532 L 569 532 Z M 569 505 " clip-rule="nonzero"/></clipPath><clipPath id="59e5e38acf"><path d="M 569 565 L 594.984375 565 L 594.984375 592 L 569 592 Z M 569 565 " clip-rule="nonzero"/></clipPath><clipPath id="55b2f73391"><path d="M 569 624 L 594.984375 624 L 594.984375 651 L 569 651 Z M 569 624 " clip-rule="nonzero"/></clipPath><clipPath id="a41855cea6"><path d="M 569 683 L 594.984375 683 L 594.984375 710 L 569 710 Z M 569 683 " clip-rule="nonzero"/></clipPath><clipPath id="c380f43dd1"><path d="M 569 742 L 594.984375 742 L 594.984375 769 L 569 769 Z M 569 742 " clip-rule="nonzero"/></clipPath><clipPath id="66e28ddd86"><path d="M 51 772 L 80 772 L 80 798.363281 L 51 798.363281 Z M 51 772 " clip-rule="nonzero"/></clipPath><clipPath id="19d3c7efd2"><path d="M 131 772 L 159 772 L 159 798.363281 L 131 798.363281 Z M 131 772 " clip-rule="nonzero"/></clipPath><clipPath id="a075a0fb4e"><path d="M 211 772 L 239 772 L 239 798.363281 L 211 798.363281 Z M 211 772 " clip-rule="nonzero"/></clipPath><clipPath id="a513ce2b60"><path d="M 291 772 L 319 772 L 319 798.363281 L 291 798.363281 Z M 291 772 " clip-rule="nonzero"/></clipPath><clipPath id="2af8012688"><path d="M 370 772 L 399 772 L 399 798.363281 L 370 798.363281 Z M 370 772 " clip-rule="nonzero"/></clipPath><clipPath id="642f6eaa8c"><path d="M 450 772 L 478 772 L 478 798.363281 L 450 798.363281 Z M 450 772 " clip-rule="nonzero"/></clipPath><clipPath id="77f2a07f3a"><path d="M 530 772 L 558 772 L 558 798.363281 L 530 798.363281 Z M 530 772 " clip-rule="nonzero"/></clipPath><clipPath id="715c3a5e18"><rect x="0" width="595" y="0" height="801"/></clipPath><clipPath id="760b27f7c4"><path d="M 570.828125 703 L 594.984375 703 L 594.984375 738.570312 L 570.828125 738.570312 Z M 570.828125 703 " clip-rule="nonzero"/></clipPath><clipPath id="1d8a6e7109"><path d="M 570.828125 668 L 594.984375 668 L 594.984375 703 L 570.828125 703 Z M 570.828125 668 " clip-rule="nonzero"/></clipPath><clipPath id="ad972b2077"><path d="M 570.828125 632 L 594.984375 632 L 594.984375 668 L 570.828125 668 Z M 570.828125 632 " clip-rule="nonzero"/></clipPath><clipPath id="f8bb10e471"><path d="M 570.828125 597 L 594.984375 597 L 594.984375 632 L 570.828125 632 Z M 570.828125 597 " clip-rule="nonzero"/></clipPath><clipPath id="58b9abbde8"><path d="M 570.828125 561 L 594.984375 561 L 594.984375 597 L 570.828125 597 Z M 570.828125 561 " clip-rule="nonzero"/></clipPath><clipPath id="88dfc5931c"><path d="M 570.828125 526 L 594.984375 526 L 594.984375 562 L 570.828125 562 Z M 570.828125 526 " clip-rule="nonzero"/></clipPath><clipPath id="5284c9447f"><path d="M 570.828125 491 L 594.984375 491 L 594.984375 526 L 570.828125 526 Z M 570.828125 491 " clip-rule="nonzero"/></clipPath></defs><g clip-path="url(#c7c769bb3f)"><path fill="#ffffff" d="M 0.015625 0 L 594.984375 0 L 594.984375 841.5 L 0.015625 841.5 Z M 0.015625 0 " fill-opacity="1" fill-rule="nonzero"/><path fill="#681f98" d="M 0.015625 0 L 595.210938 0 L 595.210938 841.816406 L 0.015625 841.816406 Z M 0.015625 0 " fill-opacity="1" fill-rule="nonzero"/></g><g clip-path="url(#4d9c4c56fa)"><g mask="url(#64beb9b6e1)"><g transform="matrix(1, 0, 0, 1, -0.000000000000000002, 12)"><g clip-path="url(#715c3a5e18)"><g clip-path="url(#f2ae01c5b5)"><path fill="#ffffff" d="M 57.042969 28.625 L 65.480469 24.179688 L 73.925781 28.625 L 72.304688 19.222656 L 79.132812 12.566406 L 69.699219 11.199219 L 65.480469 2.644531 L 61.261719 11.199219 L 51.820312 12.566406 L 58.644531 19.222656 L 57.042969 28.625 " fill-opacity="1" fill-rule="nonzero"/></g><path fill="#ffffff" d="M 57.042969 87.839844 L 65.480469 83.402344 L 73.925781 87.839844 L 72.304688 78.4375 L 79.132812 71.777344 L 69.699219 70.402344 L 65.480469 61.855469 L 61.261719 70.402344 L 51.820312 71.777344 L 58.644531 78.4375 L 57.042969 87.839844 " fill-opacity="1" fill-rule="nonzero"/><path fill="#ffffff" d="M 57.027344 147.046875 L 65.472656 142.609375 L 73.910156 147.046875 L 72.304688 137.652344 L 79.132812 130.992188 L 69.699219 129.617188 L 65.472656 121.070312 L 61.253906 129.617188 L 51.816406 130.992188 L 58.644531 137.652344 L 57.027344 147.046875 " fill-opacity="1" fill-rule="nonzero"/><path fill="#ffffff" d="M 65.472656 180.285156 L 61.253906 188.832031 L 51.816406 190.207031 L 58.644531 196.867188 L 57.027344 206.257812 L 65.472656 201.832031 L 73.910156 206.257812 L 72.304688 196.867188 L 79.132812 190.207031 L 69.699219 188.832031 L 65.472656 180.285156 " fill-opacity="1" fill-rule="nonzero"/><path fill="#ffffff" d="M 69.699219 248.046875 L 65.480469 239.5 L 61.261719 248.046875 L 51.820312 249.421875 L 58.644531 256.078125 L 57.042969 265.480469 L 65.480469 261.035156 L 73.925781 265.480469 L 72.304688 256.078125 L 79.132812 249.421875 L 69.699219 248.046875 " fill-opacity="1" fill-rule="nonzero"/><path fill="#ffffff" d="M 58.644531 315.292969 L 57.042969 324.6875 L 65.480469 320.25 L 73.925781 324.6875 L 72.304688 315.292969 L 79.132812 308.625 L 69.699219 307.257812 L 65.480469 298.703125 L 61.261719 307.257812 L 51.820312 308.625 L 58.644531 315.292969 " fill-opacity="1" fill-rule="nonzero"/><path fill="#ffffff" d="M 65.472656 357.925781 L 61.253906 366.472656 L 51.816406 367.847656 L 58.644531 374.5 L 57.027344 383.902344 L 65.472656 379.464844 L 73.910156 383.902344 L 72.304688 374.5 L 79.132812 367.847656 L 69.699219 366.472656 L 65.472656 357.925781 " fill-opacity="1" fill-rule="nonzero"/><path fill="#ffffff" d="M 79.132812 427.054688 L 69.699219 425.679688 L 65.480469 417.140625 L 65.472656 417.140625 L 61.253906 425.679688 L 51.820312 427.054688 L 51.816406 427.054688 L 58.644531 433.714844 L 57.027344 443.113281 L 57.042969 443.105469 L 57.042969 443.113281 L 65.472656 438.679688 L 73.910156 443.113281 L 73.910156 443.105469 L 73.925781 443.113281 L 72.304688 433.714844 L 79.132812 427.054688 " fill-opacity="1" fill-rule="nonzero"/><path fill="#ffffff" d="M 69.699219 484.902344 L 65.480469 476.347656 L 61.261719 484.902344 L 51.820312 486.269531 L 58.644531 492.925781 L 57.042969 502.328125 L 65.480469 497.890625 L 73.925781 502.328125 L 72.304688 492.925781 L 79.132812 486.269531 L 69.699219 484.902344 " fill-opacity="1" fill-rule="nonzero"/><path fill="#ffffff" d="M 65.472656 535.566406 L 61.253906 544.113281 L 51.816406 545.480469 L 58.644531 552.140625 L 57.027344 561.542969 L 65.472656 557.105469 L 73.910156 561.542969 L 72.304688 552.140625 L 79.132812 545.480469 L 69.699219 544.113281 L 65.472656 535.566406 " fill-opacity="1" fill-rule="nonzero"/><path fill="#ffffff" d="M 65.472656 594.773438 L 61.253906 603.320312 L 51.816406 604.695312 L 58.644531 611.355469 L 57.027344 620.75 L 65.472656 616.320312 L 73.910156 620.75 L 72.304688 611.355469 L 79.132812 604.695312 L 69.699219 603.320312 L 65.472656 594.773438 " fill-opacity="1" fill-rule="nonzero"/><path fill="#ffffff" d="M 69.699219 662.542969 L 65.480469 653.988281 L 61.261719 662.542969 L 51.820312 663.910156 L 58.644531 670.570312 L 57.042969 679.96875 L 65.480469 675.527344 L 73.925781 679.96875 L 72.304688 670.570312 L 79.132812 663.910156 L 69.699219 662.542969 " fill-opacity="1" fill-rule="nonzero"/><path fill="#ffffff" d="M 58.644531 729.78125 L 57.042969 739.183594 L 65.480469 734.738281 L 73.925781 739.183594 L 72.304688 729.78125 L 79.132812 723.125 L 69.699219 721.75 L 65.480469 713.203125 L 61.261719 721.75 L 51.820312 723.125 L 58.644531 729.78125 " fill-opacity="1" fill-rule="nonzero"/><path fill="#ffffff" d="M 16.523438 58.226562 L 24.960938 53.792969 L 33.40625 58.226562 L 31.792969 48.835938 L 38.613281 42.167969 L 29.179688 40.808594 L 24.960938 32.246094 L 20.734375 40.808594 L 11.300781 42.167969 L 18.125 48.835938 L 16.523438 58.226562 " fill-opacity="1" fill-rule="nonzero"/><path fill="#ffffff" d="M 16.523438 117.441406 L 24.960938 113.003906 L 33.40625 117.441406 L 31.792969 108.039062 L 38.613281 101.390625 L 29.179688 100.015625 L 24.960938 91.460938 L 20.734375 100.015625 L 11.300781 101.390625 L 18.125 108.039062 L 16.523438 117.441406 " fill-opacity="1" fill-rule="nonzero"/><path fill="#ffffff" d="M 16.523438 176.65625 L 24.960938 172.21875 L 33.398438 176.65625 L 31.785156 167.253906 L 38.621094 160.597656 L 29.1875 159.226562 L 24.960938 150.675781 L 20.742188 159.226562 L 11.300781 160.597656 L 18.132812 167.253906 L 16.523438 176.65625 " fill-opacity="1" fill-rule="nonzero"/><path fill="#ffffff" d="M 38.613281 219.808594 L 29.1875 218.441406 L 24.960938 209.886719 L 20.734375 218.441406 L 11.300781 219.808594 L 11.308594 219.808594 L 11.300781 219.808594 L 18.125 226.46875 L 16.859375 233.917969 L 16.523438 235.871094 L 24.960938 231.433594 L 33.398438 235.871094 L 33.398438 235.863281 L 33.40625 235.871094 L 31.792969 226.46875 L 38.621094 219.808594 L 38.613281 219.808594 " fill-opacity="1" fill-rule="nonzero"/><path fill="#ffffff" d="M 29.179688 277.65625 L 24.960938 269.101562 L 20.734375 277.65625 L 11.300781 279.023438 L 18.125 285.683594 L 16.523438 295.085938 L 24.960938 290.640625 L 33.40625 295.085938 L 31.792969 285.683594 L 38.613281 279.023438 L 29.179688 277.65625 " fill-opacity="1" fill-rule="nonzero"/><path fill="#ffffff" d="M 18.125 344.894531 L 16.523438 354.296875 L 24.960938 349.859375 L 33.40625 354.296875 L 31.792969 344.894531 L 38.613281 338.238281 L 29.179688 336.871094 L 24.960938 328.316406 L 20.734375 336.871094 L 11.300781 338.238281 L 18.125 344.894531 " fill-opacity="1" fill-rule="nonzero"/><path fill="#ffffff" d="M 38.613281 397.453125 L 29.1875 396.078125 L 24.960938 387.53125 L 20.742188 396.078125 L 11.300781 397.453125 L 11.308594 397.453125 L 11.300781 397.453125 L 18.125 404.109375 L 16.523438 413.511719 L 24.960938 409.074219 L 33.398438 413.511719 L 33.398438 413.503906 L 33.40625 413.503906 L 31.792969 404.109375 L 38.621094 397.453125 L 38.613281 397.453125 " fill-opacity="1" fill-rule="nonzero"/><path fill="#ffffff" d="M 38.613281 456.664062 L 31.101562 455.570312 L 29.1875 455.296875 L 24.960938 446.742188 L 20.734375 455.296875 L 11.300781 456.664062 L 11.308594 456.664062 L 11.300781 456.664062 L 14.167969 459.453125 L 18.125 463.324219 L 16.90625 470.496094 L 16.523438 472.71875 L 16.523438 472.726562 L 19.59375 471.101562 L 24.960938 468.28125 L 33.398438 472.71875 L 33.40625 472.726562 L 31.792969 463.324219 L 35.863281 459.347656 L 38.621094 456.664062 L 38.613281 456.664062 " fill-opacity="1" fill-rule="nonzero"/><path fill="#ffffff" d="M 29.179688 514.503906 L 24.960938 505.949219 L 20.734375 514.503906 L 11.300781 515.878906 L 18.125 522.53125 L 16.523438 531.933594 L 24.960938 527.496094 L 33.40625 531.933594 L 31.792969 522.53125 L 38.613281 515.878906 L 29.179688 514.503906 " fill-opacity="1" fill-rule="nonzero"/><path fill="#ffffff" d="M 24.960938 565.164062 L 20.742188 573.71875 L 11.300781 575.09375 L 18.132812 581.746094 L 16.523438 591.144531 L 24.960938 586.710938 L 33.398438 591.144531 L 31.785156 581.746094 L 38.621094 575.09375 L 29.1875 573.71875 L 24.960938 565.164062 " fill-opacity="1" fill-rule="nonzero"/><path fill="#ffffff" d="M 38.613281 634.300781 L 33.492188 633.5625 L 29.1875 632.933594 L 24.960938 624.378906 L 24.960938 624.386719 L 24.960938 624.378906 L 20.734375 632.933594 L 17.796875 633.359375 L 11.300781 634.300781 L 11.308594 634.300781 L 11.300781 634.308594 L 14.167969 637.097656 L 18.125 640.957031 L 16.859375 648.410156 L 16.523438 650.359375 L 24.960938 645.921875 L 30.664062 648.921875 L 33.398438 650.359375 L 33.40625 650.359375 L 31.792969 640.957031 L 35.863281 636.988281 L 38.621094 634.308594 L 38.613281 634.308594 L 38.613281 634.300781 " fill-opacity="1" fill-rule="nonzero"/><path fill="#ffffff" d="M 29.179688 692.144531 L 24.960938 683.589844 L 20.734375 692.144531 L 11.300781 693.511719 L 18.125 700.171875 L 16.523438 709.574219 L 24.960938 705.128906 L 33.40625 709.574219 L 31.792969 700.171875 L 38.613281 693.511719 L 29.179688 692.144531 " fill-opacity="1" fill-rule="nonzero"/><path fill="#ffffff" d="M 18.125 759.386719 L 16.523438 768.789062 L 24.960938 764.351562 L 33.40625 768.789062 L 31.792969 759.386719 L 38.613281 752.726562 L 29.179688 751.359375 L 24.960938 742.804688 L 20.734375 751.359375 L 11.300781 752.726562 L 18.125 759.386719 " fill-opacity="1" fill-rule="nonzero"/><g clip-path="url(#ae225850dc)"><path fill="#ffffff" d="M 136.792969 28.625 L 145.238281 24.179688 L 153.683594 28.625 L 152.0625 19.222656 L 158.890625 12.566406 L 149.457031 11.199219 L 145.238281 2.644531 L 141.011719 11.199219 L 131.570312 12.566406 L 138.410156 19.222656 L 136.792969 28.625 " fill-opacity="1" fill-rule="nonzero"/></g><path fill="#ffffff" d="M 136.792969 87.839844 L 145.238281 83.402344 L 153.683594 87.839844 L 152.0625 78.4375 L 158.890625 71.777344 L 149.457031 70.402344 L 145.238281 61.855469 L 141.011719 70.402344 L 131.570312 71.777344 L 138.410156 78.4375 L 136.792969 87.839844 " fill-opacity="1" fill-rule="nonzero"/><path fill="#ffffff" d="M 136.785156 147.046875 L 145.230469 142.609375 L 153.667969 147.046875 L 152.0625 137.652344 L 158.898438 130.992188 L 149.457031 129.617188 L 145.230469 121.070312 L 141.011719 129.617188 L 131.570312 130.992188 L 138.402344 137.652344 L 136.785156 147.046875 " fill-opacity="1" fill-rule="nonzero"/><path fill="#ffffff" d="M 145.230469 180.285156 L 141.011719 188.832031 L 131.570312 190.207031 L 138.402344 196.867188 L 136.785156 206.257812 L 145.230469 201.832031 L 153.667969 206.257812 L 152.0625 196.867188 L 158.898438 190.207031 L 149.457031 188.832031 L 145.230469 180.285156 " fill-opacity="1" fill-rule="nonzero"/><path fill="#ffffff" d="M 149.457031 248.046875 L 145.238281 239.5 L 141.011719 248.046875 L 131.570312 249.421875 L 138.410156 256.078125 L 136.792969 265.480469 L 145.238281 261.035156 L 153.683594 265.480469 L 152.0625 256.078125 L 158.890625 249.421875 L 149.457031 248.046875 " fill-opacity="1" fill-rule="nonzero"/><path fill="#ffffff" d="M 138.410156 315.292969 L 136.792969 324.6875 L 145.238281 320.25 L 153.683594 324.6875 L 152.0625 315.292969 L 158.890625 308.625 L 149.457031 307.257812 L 145.238281 298.703125 L 141.011719 307.257812 L 131.570312 308.625 L 138.410156 315.292969 " fill-opacity="1" fill-rule="nonzero"/><path fill="#ffffff" d="M 145.230469 357.925781 L 141.011719 366.472656 L 131.570312 367.847656 L 138.402344 374.5 L 136.785156 383.902344 L 145.230469 379.464844 L 153.667969 383.902344 L 152.0625 374.5 L 158.898438 367.847656 L 149.457031 366.472656 L 145.230469 357.925781 " fill-opacity="1" fill-rule="nonzero"/><path fill="#ffffff" d="M 158.890625 427.054688 L 149.457031 425.679688 L 145.238281 417.140625 L 145.230469 417.140625 L 141.011719 425.679688 L 131.570312 427.054688 L 138.402344 433.714844 L 136.785156 443.113281 L 136.792969 443.105469 L 136.792969 443.113281 L 145.230469 438.679688 L 153.667969 443.113281 L 153.667969 443.105469 L 153.683594 443.113281 L 152.0625 433.714844 L 158.898438 427.054688 L 158.890625 427.054688 " fill-opacity="1" fill-rule="nonzero"/><path fill="#ffffff" d="M 149.457031 484.902344 L 145.238281 476.347656 L 141.011719 484.902344 L 131.570312 486.269531 L 138.410156 492.925781 L 136.792969 502.328125 L 145.238281 497.890625 L 153.683594 502.328125 L 152.0625 492.925781 L 158.890625 486.269531 L 149.457031 484.902344 " fill-opacity="1" fill-rule="nonzero"/><path fill="#ffffff" d="M 145.230469 535.566406 L 141.011719 544.113281 L 131.570312 545.480469 L 138.402344 552.140625 L 136.785156 561.542969 L 145.230469 557.105469 L 153.667969 561.542969 L 152.0625 552.140625 L 158.898438 545.480469 L 149.457031 544.113281 L 145.230469 535.566406 " fill-opacity="1" fill-rule="nonzero"/><path fill="#ffffff" d="M 145.230469 594.773438 L 141.011719 603.320312 L 131.570312 604.695312 L 138.402344 611.355469 L 136.785156 620.75 L 145.230469 616.320312 L 153.667969 620.75 L 152.0625 611.355469 L 158.898438 604.695312 L 149.457031 603.320312 L 145.230469 594.773438 " fill-opacity="1" fill-rule="nonzero"/><path fill="#ffffff" d="M 149.457031 662.542969 L 145.238281 653.988281 L 141.011719 662.542969 L 131.570312 663.910156 L 138.410156 670.570312 L 136.792969 679.96875 L 145.238281 675.527344 L 153.683594 679.96875 L 152.0625 670.570312 L 158.890625 663.910156 L 149.457031 662.542969 " fill-opacity="1" fill-rule="nonzero"/><path fill="#ffffff" d="M 138.410156 729.78125 L 136.792969 739.183594 L 145.238281 734.738281 L 153.683594 739.183594 L 152.0625 729.78125 L 158.890625 723.125 L 149.457031 721.75 L 145.238281 713.203125 L 141.011719 721.75 L 131.570312 723.125 L 138.410156 729.78125 " fill-opacity="1" fill-rule="nonzero"/><path fill="#ffffff" d="M 96.28125 58.226562 L 104.71875 53.792969 L 113.164062 58.226562 L 111.558594 48.835938 L 118.378906 42.167969 L 108.9375 40.808594 L 104.71875 32.246094 L 100.492188 40.808594 L 91.058594 42.167969 L 97.890625 48.835938 L 96.28125 58.226562 " fill-opacity="1" fill-rule="nonzero"/><path fill="#ffffff" d="M 96.28125 117.441406 L 104.71875 113.003906 L 113.164062 117.441406 L 111.558594 108.039062 L 118.378906 101.390625 L 108.9375 100.015625 L 104.71875 91.460938 L 100.492188 100.015625 L 91.058594 101.390625 L 97.890625 108.039062 L 96.28125 117.441406 " fill-opacity="1" fill-rule="nonzero"/><path fill="#ffffff" d="M 96.28125 176.65625 L 104.71875 172.21875 L 113.15625 176.65625 L 111.550781 167.253906 L 118.378906 160.597656 L 108.945312 159.226562 L 104.71875 150.675781 L 100.5 159.226562 L 91.058594 160.597656 L 97.898438 167.253906 L 96.28125 176.65625 " fill-opacity="1" fill-rule="nonzero"/><path fill="#ffffff" d="M 118.378906 219.808594 L 108.945312 218.441406 L 104.71875 209.886719 L 100.492188 218.441406 L 91.058594 219.808594 L 97.890625 226.46875 L 96.617188 233.917969 L 96.28125 235.871094 L 104.71875 231.433594 L 113.15625 235.871094 L 113.15625 235.863281 L 113.164062 235.871094 L 111.558594 226.46875 L 118.378906 219.808594 " fill-opacity="1" fill-rule="nonzero"/><path fill="#ffffff" d="M 108.9375 277.65625 L 104.71875 269.101562 L 100.492188 277.65625 L 91.058594 279.023438 L 97.890625 285.683594 L 96.28125 295.085938 L 104.71875 290.640625 L 113.164062 295.085938 L 111.558594 285.683594 L 118.378906 279.023438 L 108.9375 277.65625 " fill-opacity="1" fill-rule="nonzero"/><path fill="#ffffff" d="M 97.890625 344.894531 L 96.28125 354.296875 L 104.71875 349.859375 L 113.164062 354.296875 L 111.558594 344.894531 L 118.378906 338.238281 L 108.9375 336.871094 L 104.71875 328.316406 L 100.492188 336.871094 L 91.058594 338.238281 L 97.890625 344.894531 " fill-opacity="1" fill-rule="nonzero"/><path fill="#ffffff" d="M 118.378906 397.453125 L 108.945312 396.078125 L 104.71875 387.53125 L 100.5 396.078125 L 91.058594 397.453125 L 97.890625 404.109375 L 96.28125 413.511719 L 104.71875 409.074219 L 113.15625 413.511719 L 113.15625 413.503906 L 113.164062 413.503906 L 111.558594 404.109375 L 118.378906 397.453125 " fill-opacity="1" fill-rule="nonzero"/><path fill="#ffffff" d="M 118.378906 456.664062 L 110.859375 455.570312 L 108.945312 455.296875 L 104.71875 446.742188 L 100.492188 455.296875 L 91.058594 456.664062 L 93.925781 459.453125 L 97.890625 463.324219 L 96.660156 470.496094 L 96.28125 472.71875 L 96.28125 472.726562 L 99.359375 471.101562 L 104.71875 468.28125 L 113.15625 472.71875 L 113.164062 472.726562 L 111.558594 463.324219 L 115.628906 459.347656 L 118.378906 456.664062 " fill-opacity="1" fill-rule="nonzero"/><path fill="#ffffff" d="M 108.9375 514.503906 L 104.71875 505.949219 L 100.492188 514.503906 L 91.058594 515.878906 L 97.890625 522.53125 L 96.28125 531.933594 L 104.71875 527.496094 L 113.164062 531.933594 L 111.558594 522.53125 L 118.378906 515.878906 L 108.9375 514.503906 " fill-opacity="1" fill-rule="nonzero"/><path fill="#ffffff" d="M 104.71875 565.164062 L 100.5 573.71875 L 91.058594 575.09375 L 97.898438 581.746094 L 96.28125 591.144531 L 104.71875 586.710938 L 113.15625 591.144531 L 111.550781 581.746094 L 118.378906 575.09375 L 108.945312 573.71875 L 104.71875 565.164062 " fill-opacity="1" fill-rule="nonzero"/><path fill="#ffffff" d="M 118.378906 634.300781 L 113.242188 633.5625 L 108.945312 632.933594 L 104.71875 624.378906 L 104.71875 624.386719 L 104.71875 624.378906 L 100.492188 632.933594 L 97.554688 633.359375 L 91.058594 634.300781 L 91.058594 634.308594 L 93.925781 637.097656 L 97.890625 640.957031 L 96.617188 648.410156 L 96.28125 650.359375 L 104.71875 645.921875 L 110.429688 648.921875 L 113.15625 650.359375 L 113.164062 650.359375 L 111.558594 640.957031 L 115.628906 636.988281 L 118.378906 634.308594 L 118.378906 634.300781 " fill-opacity="1" fill-rule="nonzero"/><path fill="#ffffff" d="M 108.9375 692.144531 L 104.71875 683.589844 L 100.492188 692.144531 L 91.058594 693.511719 L 97.890625 700.171875 L 96.28125 709.574219 L 104.71875 705.128906 L 113.164062 709.574219 L 111.558594 700.171875 L 118.378906 693.511719 L 108.9375 692.144531 " fill-opacity="1" fill-rule="nonzero"/><path fill="#ffffff" d="M 97.890625 759.386719 L 96.28125 768.789062 L 104.71875 764.351562 L 113.164062 768.789062 L 111.558594 759.386719 L 118.378906 752.726562 L 108.9375 751.359375 L 104.71875 742.804688 L 100.492188 751.359375 L 91.058594 752.726562 L 97.890625 759.386719 " fill-opacity="1" fill-rule="nonzero"/><g clip-path="url(#16c26cb4ec)"><path fill="#ffffff" d="M 216.558594 28.625 L 224.996094 24.179688 L 233.433594 28.625 L 231.824219 19.222656 L 238.648438 12.566406 L 229.214844 11.199219 L 224.996094 2.644531 L 220.769531 11.199219 L 211.335938 12.566406 L 218.167969 19.222656 L 216.558594 28.625 " fill-opacity="1" fill-rule="nonzero"/></g><path fill="#ffffff" d="M 216.558594 87.839844 L 224.996094 83.402344 L 233.433594 87.839844 L 231.824219 78.4375 L 238.648438 71.777344 L 229.214844 70.402344 L 224.996094 61.855469 L 220.769531 70.402344 L 211.335938 71.777344 L 218.167969 78.4375 L 216.558594 87.839844 " fill-opacity="1" fill-rule="nonzero"/><path fill="#ffffff" d="M 216.542969 147.046875 L 224.988281 142.609375 L 233.425781 147.046875 L 231.824219 137.652344 L 238.648438 130.992188 L 229.214844 129.617188 L 224.988281 121.070312 L 220.769531 129.617188 L 211.335938 130.992188 L 218.160156 137.652344 L 216.542969 147.046875 " fill-opacity="1" fill-rule="nonzero"/><path fill="#ffffff" d="M 224.988281 180.285156 L 220.769531 188.832031 L 211.335938 190.207031 L 218.160156 196.867188 L 216.542969 206.257812 L 224.988281 201.832031 L 233.425781 206.257812 L 231.824219 196.867188 L 238.648438 190.207031 L 229.214844 188.832031 L 224.988281 180.285156 " fill-opacity="1" fill-rule="nonzero"/><path fill="#ffffff" d="M 229.214844 248.046875 L 224.996094 239.5 L 220.769531 248.046875 L 211.335938 249.421875 L 218.167969 256.078125 L 216.558594 265.480469 L 224.996094 261.035156 L 233.433594 265.480469 L 231.824219 256.078125 L 238.648438 249.421875 L 229.214844 248.046875 " fill-opacity="1" fill-rule="nonzero"/><path fill="#ffffff" d="M 218.167969 315.292969 L 216.558594 324.6875 L 224.996094 320.25 L 233.433594 324.6875 L 231.824219 315.292969 L 238.648438 308.625 L 229.214844 307.257812 L 224.996094 298.703125 L 220.769531 307.257812 L 211.335938 308.625 L 218.167969 315.292969 " fill-opacity="1" fill-rule="nonzero"/><path fill="#ffffff" d="M 224.988281 357.925781 L 220.769531 366.472656 L 211.335938 367.847656 L 218.160156 374.5 L 216.542969 383.902344 L 224.988281 379.464844 L 233.425781 383.902344 L 231.824219 374.5 L 238.648438 367.847656 L 229.214844 366.472656 L 224.988281 357.925781 " fill-opacity="1" fill-rule="nonzero"/><path fill="#ffffff" d="M 238.648438 427.054688 L 229.214844 425.679688 L 224.996094 417.140625 L 224.988281 417.140625 L 220.769531 425.679688 L 211.335938 427.054688 L 218.160156 433.714844 L 216.542969 443.113281 L 216.558594 443.105469 L 216.558594 443.113281 L 224.988281 438.679688 L 233.425781 443.113281 L 233.425781 443.105469 L 233.433594 443.113281 L 231.824219 433.714844 L 238.648438 427.054688 " fill-opacity="1" fill-rule="nonzero"/><path fill="#ffffff" d="M 229.214844 484.902344 L 224.996094 476.347656 L 220.769531 484.902344 L 211.335938 486.269531 L 218.167969 492.925781 L 216.558594 502.328125 L 224.996094 497.890625 L 233.433594 502.328125 L 231.824219 492.925781 L 238.648438 486.269531 L 229.214844 484.902344 " fill-opacity="1" fill-rule="nonzero"/><path fill="#ffffff" d="M 224.988281 535.566406 L 220.769531 544.113281 L 211.335938 545.480469 L 218.160156 552.140625 L 216.542969 561.542969 L 224.988281 557.105469 L 233.425781 561.542969 L 231.824219 552.140625 L 238.648438 545.480469 L 229.214844 544.113281 L 224.988281 535.566406 " fill-opacity="1" fill-rule="nonzero"/><path fill="#ffffff" d="M 224.988281 594.773438 L 220.769531 603.320312 L 211.335938 604.695312 L 218.160156 611.355469 L 216.542969 620.75 L 224.988281 616.320312 L 233.425781 620.75 L 231.824219 611.355469 L 238.648438 604.695312 L 229.214844 603.320312 L 224.988281 594.773438 " fill-opacity="1" fill-rule="nonzero"/><path fill="#ffffff" d="M 229.214844 662.542969 L 224.996094 653.988281 L 220.769531 662.542969 L 211.335938 663.910156 L 218.167969 670.570312 L 216.558594 679.96875 L 224.996094 675.527344 L 233.433594 679.96875 L 231.824219 670.570312 L 238.648438 663.910156 L 229.214844 662.542969 " fill-opacity="1" fill-rule="nonzero"/><path fill="#ffffff" d="M 218.167969 729.78125 L 216.558594 739.183594 L 224.996094 734.738281 L 233.433594 739.183594 L 231.824219 729.78125 L 238.648438 723.125 L 229.214844 721.75 L 224.996094 713.203125 L 220.769531 721.75 L 211.335938 723.125 L 218.167969 729.78125 " fill-opacity="1" fill-rule="nonzero"/><path fill="#ffffff" d="M 176.039062 58.226562 L 184.476562 53.792969 L 192.921875 58.226562 L 191.3125 48.835938 L 198.136719 42.167969 L 188.695312 40.808594 L 184.476562 32.246094 L 180.257812 40.808594 L 170.824219 42.167969 L 177.648438 48.835938 L 176.039062 58.226562 " fill-opacity="1" fill-rule="nonzero"/><path fill="#ffffff" d="M 176.039062 117.441406 L 184.476562 113.003906 L 192.921875 117.441406 L 191.3125 108.039062 L 198.136719 101.390625 L 188.695312 100.015625 L 184.476562 91.460938 L 180.257812 100.015625 L 170.824219 101.390625 L 177.648438 108.039062 L 176.039062 117.441406 " fill-opacity="1" fill-rule="nonzero"/><path fill="#ffffff" d="M 176.039062 176.65625 L 184.484375 172.21875 L 192.914062 176.65625 L 191.304688 167.253906 L 198.136719 160.597656 L 188.703125 159.226562 L 184.484375 150.675781 L 180.257812 159.226562 L 170.816406 160.597656 L 177.648438 167.253906 L 176.039062 176.65625 " fill-opacity="1" fill-rule="nonzero"/><path fill="#ffffff" d="M 198.136719 219.808594 L 188.703125 218.441406 L 184.484375 209.886719 L 184.476562 209.886719 L 180.257812 218.441406 L 170.824219 219.808594 L 170.816406 219.808594 L 177.648438 226.46875 L 176.371094 233.917969 L 176.039062 235.871094 L 184.476562 231.433594 L 192.914062 235.871094 L 192.914062 235.863281 L 192.921875 235.871094 L 191.3125 226.46875 L 198.136719 219.808594 L 198.128906 219.808594 L 198.136719 219.808594 " fill-opacity="1" fill-rule="nonzero"/><path fill="#ffffff" d="M 188.695312 277.65625 L 184.476562 269.101562 L 180.257812 277.65625 L 170.824219 279.023438 L 177.648438 285.683594 L 176.039062 295.085938 L 184.476562 290.640625 L 192.921875 295.085938 L 191.3125 285.683594 L 198.136719 279.023438 L 188.695312 277.65625 " fill-opacity="1" fill-rule="nonzero"/><path fill="#ffffff" d="M 177.648438 344.894531 L 176.039062 354.296875 L 184.476562 349.859375 L 192.921875 354.296875 L 191.3125 344.894531 L 198.136719 338.238281 L 188.695312 336.871094 L 184.476562 328.316406 L 180.257812 336.871094 L 170.824219 338.238281 L 177.648438 344.894531 " fill-opacity="1" fill-rule="nonzero"/><path fill="#ffffff" d="M 198.136719 397.453125 L 188.703125 396.078125 L 184.484375 387.53125 L 184.476562 387.53125 L 180.257812 396.078125 L 170.824219 397.453125 L 170.816406 397.453125 L 177.648438 404.109375 L 176.039062 413.511719 L 184.476562 409.074219 L 192.914062 413.511719 L 192.914062 413.503906 L 192.921875 413.503906 L 191.3125 404.109375 L 198.136719 397.453125 L 198.128906 397.453125 L 198.136719 397.453125 " fill-opacity="1" fill-rule="nonzero"/><path fill="#ffffff" d="M 198.136719 456.664062 L 190.613281 455.570312 L 188.703125 455.296875 L 184.484375 446.742188 L 184.476562 446.742188 L 180.257812 455.296875 L 170.824219 456.664062 L 170.816406 456.664062 L 173.675781 459.453125 L 177.648438 463.324219 L 176.417969 470.496094 L 176.039062 472.71875 L 176.039062 472.726562 L 179.117188 471.101562 L 184.484375 468.28125 L 192.914062 472.71875 L 192.921875 472.726562 L 191.3125 463.324219 L 195.386719 459.347656 L 198.136719 456.664062 L 198.128906 456.664062 L 198.136719 456.664062 " fill-opacity="1" fill-rule="nonzero"/><path fill="#ffffff" d="M 188.695312 514.503906 L 184.476562 505.949219 L 180.257812 514.503906 L 170.824219 515.878906 L 177.648438 522.53125 L 176.039062 531.933594 L 184.476562 527.496094 L 192.921875 531.933594 L 191.3125 522.53125 L 198.136719 515.878906 L 188.695312 514.503906 " fill-opacity="1" fill-rule="nonzero"/><path fill="#ffffff" d="M 184.484375 565.164062 L 180.257812 573.71875 L 170.816406 575.09375 L 177.648438 581.746094 L 176.039062 591.144531 L 184.484375 586.710938 L 192.914062 591.144531 L 191.304688 581.746094 L 198.136719 575.09375 L 188.703125 573.71875 L 184.484375 565.164062 " fill-opacity="1" fill-rule="nonzero"/><path fill="#ffffff" d="M 198.136719 634.300781 L 193 633.5625 L 188.703125 632.933594 L 184.484375 624.378906 L 184.476562 624.386719 L 184.476562 624.378906 L 180.257812 632.933594 L 177.3125 633.359375 L 170.824219 634.300781 L 170.816406 634.308594 L 173.675781 637.097656 L 177.648438 640.957031 L 176.371094 648.410156 L 176.039062 650.359375 L 184.476562 645.921875 L 190.1875 648.921875 L 192.914062 650.359375 L 192.921875 650.359375 L 191.3125 640.957031 L 195.386719 636.988281 L 198.136719 634.308594 L 198.128906 634.308594 L 198.136719 634.300781 " fill-opacity="1" fill-rule="nonzero"/><path fill="#ffffff" d="M 188.695312 692.144531 L 184.476562 683.589844 L 180.257812 692.144531 L 170.824219 693.511719 L 177.648438 700.171875 L 176.039062 709.574219 L 184.476562 705.128906 L 192.921875 709.574219 L 191.3125 700.171875 L 198.136719 693.511719 L 188.695312 692.144531 " fill-opacity="1" fill-rule="nonzero"/><path fill="#ffffff" d="M 177.648438 759.386719 L 176.039062 768.789062 L 184.476562 764.351562 L 192.921875 768.789062 L 191.3125 759.386719 L 198.136719 752.726562 L 188.695312 751.359375 L 184.476562 742.804688 L 180.257812 751.359375 L 170.824219 752.726562 L 177.648438 759.386719 " fill-opacity="1" fill-rule="nonzero"/><g clip-path="url(#960bf0ccb5)"><path fill="#ffffff" d="M 296.316406 28.625 L 304.753906 24.179688 L 313.199219 28.625 L 311.582031 19.222656 L 318.414062 12.566406 L 308.972656 11.199219 L 304.753906 2.644531 L 300.535156 11.199219 L 291.09375 12.566406 L 297.917969 19.222656 L 296.316406 28.625 " fill-opacity="1" fill-rule="nonzero"/></g><path fill="#ffffff" d="M 296.316406 87.839844 L 304.753906 83.402344 L 313.199219 87.839844 L 311.582031 78.4375 L 318.414062 71.777344 L 308.972656 70.402344 L 304.753906 61.855469 L 300.535156 70.402344 L 291.09375 71.777344 L 297.917969 78.4375 L 296.316406 87.839844 " fill-opacity="1" fill-rule="nonzero"/><path fill="#ffffff" d="M 296.308594 147.046875 L 304.753906 142.609375 L 313.191406 147.046875 L 311.582031 137.652344 L 318.414062 130.992188 L 308.972656 129.617188 L 304.753906 121.070312 L 300.527344 129.617188 L 291.09375 130.992188 L 297.917969 137.652344 L 296.308594 147.046875 " fill-opacity="1" fill-rule="nonzero"/><path fill="#ffffff" d="M 304.753906 180.285156 L 300.527344 188.832031 L 291.09375 190.207031 L 297.917969 196.867188 L 296.308594 206.257812 L 304.753906 201.832031 L 313.191406 206.257812 L 311.582031 196.867188 L 318.414062 190.207031 L 308.972656 188.832031 L 304.753906 180.285156 " fill-opacity="1" fill-rule="nonzero"/><path fill="#ffffff" d="M 308.972656 248.046875 L 304.753906 239.5 L 300.535156 248.046875 L 291.09375 249.421875 L 297.917969 256.078125 L 296.316406 265.480469 L 304.753906 261.035156 L 313.199219 265.480469 L 311.582031 256.078125 L 318.414062 249.421875 L 308.972656 248.046875 " fill-opacity="1" fill-rule="nonzero"/><path fill="#ffffff" d="M 297.917969 315.292969 L 296.316406 324.6875 L 304.753906 320.25 L 313.199219 324.6875 L 311.582031 315.292969 L 318.414062 308.625 L 308.972656 307.257812 L 304.753906 298.703125 L 300.535156 307.257812 L 291.09375 308.625 L 297.917969 315.292969 " fill-opacity="1" fill-rule="nonzero"/><path fill="#ffffff" d="M 304.753906 357.925781 L 300.527344 366.472656 L 291.09375 367.847656 L 297.917969 374.5 L 296.308594 383.902344 L 304.753906 379.464844 L 313.191406 383.902344 L 311.582031 374.5 L 318.414062 367.847656 L 308.972656 366.472656 L 304.753906 357.925781 " fill-opacity="1" fill-rule="nonzero"/><path fill="#ffffff" d="M 318.414062 427.054688 L 308.972656 425.679688 L 304.753906 417.140625 L 300.527344 425.679688 L 291.09375 427.054688 L 297.917969 433.714844 L 296.308594 443.113281 L 296.316406 443.105469 L 296.316406 443.113281 L 304.753906 438.679688 L 313.191406 443.113281 L 313.191406 443.105469 L 313.199219 443.113281 L 311.582031 433.714844 L 318.414062 427.054688 " fill-opacity="1" fill-rule="nonzero"/><path fill="#ffffff" d="M 308.972656 484.902344 L 304.753906 476.347656 L 300.535156 484.902344 L 291.09375 486.269531 L 297.917969 492.925781 L 296.316406 502.328125 L 304.753906 497.890625 L 313.199219 502.328125 L 311.582031 492.925781 L 318.414062 486.269531 L 308.972656 484.902344 " fill-opacity="1" fill-rule="nonzero"/><path fill="#ffffff" d="M 304.753906 535.566406 L 300.527344 544.113281 L 291.09375 545.480469 L 297.917969 552.140625 L 296.308594 561.542969 L 304.753906 557.105469 L 313.191406 561.542969 L 311.582031 552.140625 L 318.414062 545.480469 L 308.972656 544.113281 L 304.753906 535.566406 " fill-opacity="1" fill-rule="nonzero"/><path fill="#ffffff" d="M 304.753906 594.773438 L 300.527344 603.320312 L 291.09375 604.695312 L 297.917969 611.355469 L 296.308594 620.75 L 304.753906 616.320312 L 313.191406 620.75 L 311.582031 611.355469 L 318.414062 604.695312 L 308.972656 603.320312 L 304.753906 594.773438 " fill-opacity="1" fill-rule="nonzero"/><path fill="#ffffff" d="M 308.972656 662.542969 L 304.753906 653.988281 L 300.535156 662.542969 L 291.09375 663.910156 L 297.917969 670.570312 L 296.316406 679.96875 L 304.753906 675.527344 L 313.199219 679.96875 L 311.582031 670.570312 L 318.414062 663.910156 L 308.972656 662.542969 " fill-opacity="1" fill-rule="nonzero"/><path fill="#ffffff" d="M 297.917969 729.78125 L 296.316406 739.183594 L 304.753906 734.738281 L 313.199219 739.183594 L 311.582031 729.78125 L 318.414062 723.125 L 308.972656 721.75 L 304.753906 713.203125 L 300.535156 721.75 L 291.09375 723.125 L 297.917969 729.78125 " fill-opacity="1" fill-rule="nonzero"/><path fill="#ffffff" d="M 255.796875 58.226562 L 264.234375 53.792969 L 272.679688 58.226562 L 271.0625 48.835938 L 277.894531 42.167969 L 268.460938 40.808594 L 264.234375 32.246094 L 260.015625 40.808594 L 250.574219 42.167969 L 257.402344 48.835938 L 255.796875 58.226562 " fill-opacity="1" fill-rule="nonzero"/><path fill="#ffffff" d="M 255.796875 117.441406 L 264.234375 113.003906 L 272.679688 117.441406 L 271.0625 108.039062 L 277.894531 101.390625 L 268.460938 100.015625 L 264.234375 91.460938 L 260.015625 100.015625 L 250.574219 101.390625 L 257.402344 108.039062 L 255.796875 117.441406 " fill-opacity="1" fill-rule="nonzero"/><path fill="#ffffff" d="M 255.796875 176.65625 L 264.242188 172.21875 L 272.679688 176.65625 L 271.0625 167.253906 L 277.894531 160.597656 L 268.460938 159.226562 L 264.242188 150.675781 L 260.015625 159.226562 L 250.574219 160.597656 L 257.402344 167.253906 L 255.796875 176.65625 " fill-opacity="1" fill-rule="nonzero"/><path fill="#ffffff" d="M 277.894531 219.808594 L 268.460938 218.441406 L 264.242188 209.886719 L 264.234375 209.886719 L 260.015625 218.441406 L 250.574219 219.808594 L 257.402344 226.46875 L 256.128906 233.917969 L 255.796875 235.871094 L 264.234375 231.433594 L 272.679688 235.871094 L 272.679688 235.863281 L 272.679688 235.871094 L 271.0625 226.46875 L 277.894531 219.808594 " fill-opacity="1" fill-rule="nonzero"/><path fill="#ffffff" d="M 268.460938 277.65625 L 264.234375 269.101562 L 260.015625 277.65625 L 250.574219 279.023438 L 257.402344 285.683594 L 255.796875 295.085938 L 264.234375 290.640625 L 272.679688 295.085938 L 271.0625 285.683594 L 277.894531 279.023438 L 268.460938 277.65625 " fill-opacity="1" fill-rule="nonzero"/><path fill="#ffffff" d="M 257.402344 344.894531 L 255.796875 354.296875 L 264.234375 349.859375 L 272.679688 354.296875 L 271.0625 344.894531 L 277.894531 338.238281 L 268.460938 336.871094 L 264.234375 328.316406 L 260.015625 336.871094 L 250.574219 338.238281 L 257.402344 344.894531 " fill-opacity="1" fill-rule="nonzero"/><path fill="#ffffff" d="M 277.894531 397.453125 L 268.460938 396.078125 L 264.242188 387.53125 L 264.234375 387.53125 L 260.015625 396.078125 L 250.574219 397.453125 L 257.402344 404.109375 L 255.796875 413.511719 L 264.234375 409.074219 L 272.679688 413.511719 L 272.679688 413.503906 L 271.0625 404.109375 L 277.894531 397.453125 " fill-opacity="1" fill-rule="nonzero"/><path fill="#ffffff" d="M 277.894531 456.664062 L 270.371094 455.570312 L 268.460938 455.296875 L 264.242188 446.742188 L 264.234375 446.742188 L 260.015625 455.296875 L 250.574219 456.664062 L 253.441406 459.453125 L 257.402344 463.324219 L 256.175781 470.496094 L 255.796875 472.71875 L 255.796875 472.726562 L 258.871094 471.101562 L 264.242188 468.28125 L 272.679688 472.71875 L 272.679688 472.726562 L 271.0625 463.324219 L 275.144531 459.347656 L 277.894531 456.664062 " fill-opacity="1" fill-rule="nonzero"/><path fill="#ffffff" d="M 268.460938 514.503906 L 264.234375 505.949219 L 260.015625 514.503906 L 250.574219 515.878906 L 257.402344 522.53125 L 255.796875 531.933594 L 264.234375 527.496094 L 272.679688 531.933594 L 271.0625 522.53125 L 277.894531 515.878906 L 268.460938 514.503906 " fill-opacity="1" fill-rule="nonzero"/><path fill="#ffffff" d="M 264.242188 565.164062 L 260.015625 573.71875 L 250.574219 575.09375 L 257.402344 581.746094 L 255.796875 591.144531 L 264.242188 586.710938 L 272.679688 591.144531 L 271.0625 581.746094 L 277.894531 575.09375 L 268.460938 573.71875 L 264.242188 565.164062 " fill-opacity="1" fill-rule="nonzero"/><path fill="#ffffff" d="M 277.894531 634.300781 L 272.765625 633.5625 L 268.460938 632.933594 L 264.242188 624.378906 L 264.234375 624.386719 L 264.234375 624.378906 L 260.015625 632.933594 L 257.070312 633.359375 L 250.574219 634.300781 L 250.574219 634.308594 L 253.441406 637.097656 L 257.402344 640.957031 L 256.128906 648.410156 L 255.796875 650.359375 L 264.234375 645.921875 L 269.945312 648.921875 L 272.679688 650.359375 L 271.0625 640.957031 L 275.144531 636.988281 L 277.894531 634.308594 L 277.894531 634.300781 " fill-opacity="1" fill-rule="nonzero"/><path fill="#ffffff" d="M 268.460938 692.144531 L 264.234375 683.589844 L 260.015625 692.144531 L 250.574219 693.511719 L 257.402344 700.171875 L 255.796875 709.574219 L 264.234375 705.128906 L 272.679688 709.574219 L 271.0625 700.171875 L 277.894531 693.511719 L 268.460938 692.144531 " fill-opacity="1" fill-rule="nonzero"/><path fill="#ffffff" d="M 257.402344 759.386719 L 255.796875 768.789062 L 264.234375 764.351562 L 272.679688 768.789062 L 271.0625 759.386719 L 277.894531 752.726562 L 268.460938 751.359375 L 264.234375 742.804688 L 260.015625 751.359375 L 250.574219 752.726562 L 257.402344 759.386719 " fill-opacity="1" fill-rule="nonzero"/><g clip-path="url(#404d5c21a9)"><path fill="#ffffff" d="M 376.066406 28.625 L 384.511719 24.179688 L 392.957031 28.625 L 391.339844 19.222656 L 398.171875 12.566406 L 388.730469 11.199219 L 384.511719 2.644531 L 380.285156 11.199219 L 370.851562 12.566406 L 377.679688 19.222656 L 376.066406 28.625 " fill-opacity="1" fill-rule="nonzero"/></g><path fill="#ffffff" d="M 376.066406 87.839844 L 384.511719 83.402344 L 392.957031 87.839844 L 391.339844 78.4375 L 398.171875 71.777344 L 388.730469 70.402344 L 384.511719 61.855469 L 380.285156 70.402344 L 370.851562 71.777344 L 377.679688 78.4375 L 376.066406 87.839844 " fill-opacity="1" fill-rule="nonzero"/><path fill="#ffffff" d="M 376.058594 147.046875 L 384.503906 142.609375 L 392.949219 147.046875 L 391.339844 137.652344 L 398.171875 130.992188 L 388.730469 129.617188 L 384.503906 121.070312 L 380.285156 129.617188 L 370.84375 130.992188 L 377.671875 137.652344 L 376.058594 147.046875 " fill-opacity="1" fill-rule="nonzero"/><path fill="#ffffff" d="M 384.503906 180.285156 L 380.285156 188.832031 L 370.84375 190.207031 L 377.671875 196.867188 L 376.058594 206.257812 L 384.503906 201.832031 L 392.949219 206.257812 L 391.339844 196.867188 L 398.171875 190.207031 L 388.730469 188.832031 L 384.503906 180.285156 " fill-opacity="1" fill-rule="nonzero"/><path fill="#ffffff" d="M 388.730469 248.046875 L 384.511719 239.5 L 380.285156 248.046875 L 370.851562 249.421875 L 377.679688 256.078125 L 376.066406 265.480469 L 384.511719 261.035156 L 392.957031 265.480469 L 391.339844 256.078125 L 398.171875 249.421875 L 388.730469 248.046875 " fill-opacity="1" fill-rule="nonzero"/><path fill="#ffffff" d="M 377.679688 315.292969 L 376.066406 324.6875 L 384.511719 320.25 L 392.957031 324.6875 L 391.339844 315.292969 L 398.171875 308.625 L 388.730469 307.257812 L 384.511719 298.703125 L 380.285156 307.257812 L 370.851562 308.625 L 377.679688 315.292969 " fill-opacity="1" fill-rule="nonzero"/><path fill="#ffffff" d="M 384.503906 357.925781 L 380.285156 366.472656 L 370.84375 367.847656 L 377.671875 374.5 L 376.058594 383.902344 L 384.503906 379.464844 L 392.949219 383.902344 L 391.339844 374.5 L 398.171875 367.847656 L 388.730469 366.472656 L 384.503906 357.925781 " fill-opacity="1" fill-rule="nonzero"/><path fill="#ffffff" d="M 398.171875 427.054688 L 388.730469 425.679688 L 384.511719 417.140625 L 384.503906 417.140625 L 380.285156 425.679688 L 370.851562 427.054688 L 370.84375 427.054688 L 377.671875 433.714844 L 376.058594 443.113281 L 376.074219 443.105469 L 376.066406 443.113281 L 384.503906 438.679688 L 392.949219 443.113281 L 392.949219 443.105469 L 392.957031 443.113281 L 391.339844 433.714844 L 398.171875 427.054688 " fill-opacity="1" fill-rule="nonzero"/><path fill="#ffffff" d="M 388.730469 484.902344 L 384.511719 476.347656 L 380.285156 484.902344 L 370.851562 486.269531 L 377.679688 492.925781 L 376.066406 502.328125 L 384.511719 497.890625 L 392.957031 502.328125 L 391.339844 492.925781 L 398.171875 486.269531 L 388.730469 484.902344 " fill-opacity="1" fill-rule="nonzero"/><path fill="#ffffff" d="M 384.503906 535.566406 L 380.285156 544.113281 L 370.84375 545.480469 L 377.671875 552.140625 L 376.058594 561.542969 L 384.503906 557.105469 L 392.949219 561.542969 L 391.339844 552.140625 L 398.171875 545.480469 L 388.730469 544.113281 L 384.503906 535.566406 " fill-opacity="1" fill-rule="nonzero"/><path fill="#ffffff" d="M 384.503906 594.773438 L 380.285156 603.320312 L 370.84375 604.695312 L 377.671875 611.355469 L 376.058594 620.75 L 384.503906 616.320312 L 392.949219 620.75 L 391.339844 611.355469 L 398.171875 604.695312 L 388.730469 603.320312 L 384.503906 594.773438 " fill-opacity="1" fill-rule="nonzero"/><path fill="#ffffff" d="M 388.730469 662.542969 L 384.511719 653.988281 L 380.285156 662.542969 L 370.851562 663.910156 L 377.679688 670.570312 L 376.066406 679.96875 L 384.511719 675.527344 L 392.957031 679.96875 L 391.339844 670.570312 L 398.171875 663.910156 L 388.730469 662.542969 " fill-opacity="1" fill-rule="nonzero"/><path fill="#ffffff" d="M 377.679688 729.78125 L 376.066406 739.183594 L 384.511719 734.738281 L 392.957031 739.183594 L 391.339844 729.78125 L 398.171875 723.125 L 388.730469 721.75 L 384.511719 713.203125 L 380.285156 721.75 L 370.851562 723.125 L 377.679688 729.78125 " fill-opacity="1" fill-rule="nonzero"/><path fill="#ffffff" d="M 335.554688 58.226562 L 343.992188 53.792969 L 352.4375 58.226562 L 350.828125 48.835938 L 357.652344 42.167969 L 348.21875 40.808594 L 343.992188 32.246094 L 339.773438 40.808594 L 330.332031 42.167969 L 337.160156 48.835938 L 335.554688 58.226562 " fill-opacity="1" fill-rule="nonzero"/><path fill="#ffffff" d="M 335.554688 117.441406 L 343.992188 113.003906 L 352.4375 117.441406 L 350.828125 108.039062 L 357.652344 101.390625 L 348.21875 100.015625 L 343.992188 91.460938 L 339.773438 100.015625 L 330.332031 101.390625 L 337.160156 108.039062 L 335.554688 117.441406 " fill-opacity="1" fill-rule="nonzero"/><path fill="#ffffff" d="M 335.554688 176.65625 L 343.992188 172.21875 L 352.429688 176.65625 L 350.820312 167.253906 L 357.652344 160.597656 L 348.21875 159.226562 L 343.992188 150.675781 L 339.773438 159.226562 L 330.332031 160.597656 L 337.167969 167.253906 L 335.554688 176.65625 " fill-opacity="1" fill-rule="nonzero"/><path fill="#ffffff" d="M 357.652344 219.808594 L 348.21875 218.441406 L 343.992188 209.886719 L 339.773438 218.441406 L 330.332031 219.808594 L 337.160156 226.46875 L 335.886719 233.917969 L 335.554688 235.871094 L 343.992188 231.433594 L 352.429688 235.871094 L 352.429688 235.863281 L 352.4375 235.871094 L 350.828125 226.46875 L 357.652344 219.808594 " fill-opacity="1" fill-rule="nonzero"/><path fill="#ffffff" d="M 348.21875 277.65625 L 343.992188 269.101562 L 339.773438 277.65625 L 330.332031 279.023438 L 337.160156 285.683594 L 335.554688 295.085938 L 343.992188 290.640625 L 352.4375 295.085938 L 350.828125 285.683594 L 357.652344 279.023438 L 348.21875 277.65625 " fill-opacity="1" fill-rule="nonzero"/><path fill="#ffffff" d="M 337.160156 344.894531 L 335.554688 354.296875 L 343.992188 349.859375 L 352.4375 354.296875 L 350.828125 344.894531 L 357.652344 338.238281 L 348.21875 336.871094 L 343.992188 328.316406 L 339.773438 336.871094 L 330.332031 338.238281 L 337.160156 344.894531 " fill-opacity="1" fill-rule="nonzero"/><path fill="#ffffff" d="M 357.652344 397.453125 L 348.21875 396.078125 L 343.992188 387.53125 L 339.773438 396.078125 L 330.332031 397.453125 L 337.160156 404.109375 L 335.554688 413.511719 L 343.992188 409.074219 L 352.429688 413.511719 L 352.429688 413.503906 L 352.4375 413.503906 L 350.828125 404.109375 L 357.652344 397.453125 " fill-opacity="1" fill-rule="nonzero"/><path fill="#ffffff" d="M 357.652344 456.664062 L 350.128906 455.570312 L 348.21875 455.296875 L 343.992188 446.742188 L 339.773438 455.296875 L 330.332031 456.664062 L 333.199219 459.453125 L 337.160156 463.324219 L 335.933594 470.496094 L 335.554688 472.71875 L 335.554688 472.726562 L 338.628906 471.101562 L 343.992188 468.28125 L 352.429688 472.71875 L 352.4375 472.726562 L 350.828125 463.324219 L 354.898438 459.347656 L 357.652344 456.664062 " fill-opacity="1" fill-rule="nonzero"/><path fill="#ffffff" d="M 348.21875 514.503906 L 343.992188 505.949219 L 339.773438 514.503906 L 330.332031 515.878906 L 337.160156 522.53125 L 335.554688 531.933594 L 343.992188 527.496094 L 352.4375 531.933594 L 350.828125 522.53125 L 357.652344 515.878906 L 348.21875 514.503906 " fill-opacity="1" fill-rule="nonzero"/><path fill="#ffffff" d="M 343.992188 565.164062 L 339.773438 573.71875 L 330.332031 575.09375 L 337.167969 581.746094 L 335.554688 591.144531 L 343.992188 586.710938 L 352.429688 591.144531 L 350.820312 581.746094 L 357.652344 575.09375 L 348.21875 573.71875 L 343.992188 565.164062 " fill-opacity="1" fill-rule="nonzero"/><path fill="#ffffff" d="M 357.652344 634.300781 L 352.523438 633.5625 L 348.21875 632.933594 L 343.992188 624.378906 L 343.992188 624.386719 L 343.992188 624.378906 L 339.773438 632.933594 L 336.828125 633.359375 L 330.332031 634.300781 L 330.332031 634.308594 L 333.199219 637.097656 L 337.160156 640.957031 L 335.886719 648.410156 L 335.554688 650.359375 L 343.992188 645.921875 L 349.703125 648.921875 L 352.429688 650.359375 L 352.4375 650.359375 L 350.828125 640.957031 L 354.898438 636.988281 L 357.652344 634.308594 L 357.652344 634.300781 " fill-opacity="1" fill-rule="nonzero"/><path fill="#ffffff" d="M 348.21875 692.144531 L 343.992188 683.589844 L 339.773438 692.144531 L 330.332031 693.511719 L 337.160156 700.171875 L 335.554688 709.574219 L 343.992188 705.128906 L 352.4375 709.574219 L 350.828125 700.171875 L 357.652344 693.511719 L 348.21875 692.144531 " fill-opacity="1" fill-rule="nonzero"/><path fill="#ffffff" d="M 337.160156 759.386719 L 335.554688 768.789062 L 343.992188 764.351562 L 352.4375 768.789062 L 350.828125 759.386719 L 357.652344 752.726562 L 348.21875 751.359375 L 343.992188 742.804688 L 339.773438 751.359375 L 330.332031 752.726562 L 337.160156 759.386719 " fill-opacity="1" fill-rule="nonzero"/><g clip-path="url(#f689b7e954)"><path fill="#ffffff" d="M 455.832031 28.625 L 464.269531 24.179688 L 472.707031 28.625 L 471.097656 19.222656 L 477.917969 12.566406 L 468.488281 11.199219 L 464.269531 2.644531 L 460.050781 11.199219 L 450.609375 12.566406 L 457.4375 19.222656 L 455.832031 28.625 " fill-opacity="1" fill-rule="nonzero"/></g><path fill="#ffffff" d="M 455.832031 87.839844 L 464.269531 83.402344 L 472.707031 87.839844 L 471.097656 78.4375 L 477.917969 71.777344 L 468.488281 70.402344 L 464.269531 61.855469 L 460.050781 70.402344 L 450.609375 71.777344 L 457.4375 78.4375 L 455.832031 87.839844 " fill-opacity="1" fill-rule="nonzero"/><path fill="#ffffff" d="M 455.816406 147.046875 L 464.261719 142.609375 L 472.699219 147.046875 L 471.097656 137.652344 L 477.925781 130.992188 L 468.488281 129.617188 L 464.261719 121.070312 L 460.042969 129.617188 L 450.609375 130.992188 L 457.429688 137.652344 L 455.816406 147.046875 " fill-opacity="1" fill-rule="nonzero"/><path fill="#ffffff" d="M 464.261719 180.285156 L 460.042969 188.832031 L 450.609375 190.207031 L 457.429688 196.867188 L 455.816406 206.257812 L 464.261719 201.832031 L 472.699219 206.257812 L 471.097656 196.867188 L 477.925781 190.207031 L 468.488281 188.832031 L 464.261719 180.285156 " fill-opacity="1" fill-rule="nonzero"/><path fill="#ffffff" d="M 468.488281 248.046875 L 464.269531 239.5 L 460.050781 248.046875 L 450.609375 249.421875 L 457.4375 256.078125 L 455.832031 265.480469 L 464.269531 261.035156 L 472.707031 265.480469 L 471.097656 256.078125 L 477.917969 249.421875 L 468.488281 248.046875 " fill-opacity="1" fill-rule="nonzero"/><path fill="#ffffff" d="M 457.4375 315.292969 L 455.832031 324.6875 L 464.269531 320.25 L 472.707031 324.6875 L 471.097656 315.292969 L 477.917969 308.625 L 468.488281 307.257812 L 464.269531 298.703125 L 460.050781 307.257812 L 450.609375 308.625 L 457.4375 315.292969 " fill-opacity="1" fill-rule="nonzero"/><path fill="#ffffff" d="M 464.261719 357.925781 L 460.042969 366.472656 L 450.609375 367.847656 L 457.429688 374.5 L 455.816406 383.902344 L 464.261719 379.464844 L 472.699219 383.902344 L 471.097656 374.5 L 477.925781 367.847656 L 468.488281 366.472656 L 464.261719 357.925781 " fill-opacity="1" fill-rule="nonzero"/><path fill="#ffffff" d="M 477.917969 427.054688 L 468.488281 425.679688 L 464.269531 417.140625 L 464.261719 417.140625 L 460.042969 425.679688 L 450.609375 427.054688 L 457.429688 433.714844 L 455.816406 443.113281 L 455.832031 443.105469 L 455.832031 443.113281 L 464.261719 438.679688 L 472.699219 443.113281 L 472.699219 443.105469 L 472.707031 443.113281 L 471.097656 433.714844 L 477.925781 427.054688 L 477.917969 427.054688 " fill-opacity="1" fill-rule="nonzero"/><path fill="#ffffff" d="M 468.488281 484.902344 L 464.269531 476.347656 L 460.050781 484.902344 L 450.609375 486.269531 L 457.4375 492.925781 L 455.832031 502.328125 L 464.269531 497.890625 L 472.707031 502.328125 L 471.097656 492.925781 L 477.917969 486.269531 L 468.488281 484.902344 " fill-opacity="1" fill-rule="nonzero"/><path fill="#ffffff" d="M 464.261719 535.566406 L 460.042969 544.113281 L 450.609375 545.480469 L 457.429688 552.140625 L 455.816406 561.542969 L 464.261719 557.105469 L 472.699219 561.542969 L 471.097656 552.140625 L 477.925781 545.480469 L 468.488281 544.113281 L 464.261719 535.566406 " fill-opacity="1" fill-rule="nonzero"/><path fill="#ffffff" d="M 464.261719 594.773438 L 460.042969 603.320312 L 450.609375 604.695312 L 457.429688 611.355469 L 455.816406 620.75 L 464.261719 616.320312 L 472.699219 620.75 L 471.097656 611.355469 L 477.925781 604.695312 L 468.488281 603.320312 L 464.261719 594.773438 " fill-opacity="1" fill-rule="nonzero"/><path fill="#ffffff" d="M 468.488281 662.542969 L 464.269531 653.988281 L 460.050781 662.542969 L 450.609375 663.910156 L 457.4375 670.570312 L 455.832031 679.96875 L 464.269531 675.527344 L 472.707031 679.96875 L 471.097656 670.570312 L 477.917969 663.910156 L 468.488281 662.542969 " fill-opacity="1" fill-rule="nonzero"/><path fill="#ffffff" d="M 457.4375 729.78125 L 455.832031 739.183594 L 464.269531 734.738281 L 472.707031 739.183594 L 471.097656 729.78125 L 477.917969 723.125 L 468.488281 721.75 L 464.269531 713.203125 L 460.050781 721.75 L 450.609375 723.125 L 457.4375 729.78125 " fill-opacity="1" fill-rule="nonzero"/><path fill="#ffffff" d="M 415.316406 58.226562 L 423.757812 53.792969 L 432.195312 58.226562 L 430.585938 48.835938 L 437.40625 42.167969 L 427.976562 40.808594 L 423.757812 32.246094 L 419.53125 40.808594 L 410.097656 42.167969 L 416.917969 48.835938 L 415.316406 58.226562 " fill-opacity="1" fill-rule="nonzero"/><path fill="#ffffff" d="M 415.316406 117.441406 L 423.757812 113.003906 L 432.195312 117.441406 L 430.585938 108.039062 L 437.40625 101.390625 L 427.976562 100.015625 L 423.757812 91.460938 L 419.53125 100.015625 L 410.097656 101.390625 L 416.917969 108.039062 L 415.316406 117.441406 " fill-opacity="1" fill-rule="nonzero"/><path fill="#ffffff" d="M 415.308594 176.65625 L 423.757812 172.21875 L 432.1875 176.65625 L 430.578125 167.253906 L 437.40625 160.597656 L 427.976562 159.226562 L 423.757812 150.675781 L 419.539062 159.226562 L 410.097656 160.597656 L 416.925781 167.253906 L 415.308594 176.65625 " fill-opacity="1" fill-rule="nonzero"/><path fill="#ffffff" d="M 437.40625 219.808594 L 427.976562 218.441406 L 423.757812 209.886719 L 419.53125 218.441406 L 410.097656 219.808594 L 416.917969 226.46875 L 415.644531 233.917969 L 415.308594 235.871094 L 415.316406 235.871094 L 423.757812 231.433594 L 432.1875 235.871094 L 432.1875 235.863281 L 432.195312 235.871094 L 430.585938 226.46875 L 437.40625 219.808594 " fill-opacity="1" fill-rule="nonzero"/><path fill="#ffffff" d="M 427.976562 277.65625 L 423.757812 269.101562 L 419.53125 277.65625 L 410.097656 279.023438 L 416.917969 285.683594 L 415.316406 295.085938 L 423.757812 290.640625 L 432.195312 295.085938 L 430.585938 285.683594 L 437.40625 279.023438 L 427.976562 277.65625 " fill-opacity="1" fill-rule="nonzero"/><path fill="#ffffff" d="M 416.917969 344.894531 L 415.316406 354.296875 L 423.757812 349.859375 L 432.195312 354.296875 L 430.585938 344.894531 L 437.40625 338.238281 L 427.976562 336.871094 L 423.757812 328.316406 L 419.53125 336.871094 L 410.097656 338.238281 L 416.917969 344.894531 " fill-opacity="1" fill-rule="nonzero"/><path fill="#ffffff" d="M 437.40625 397.453125 L 427.976562 396.078125 L 423.757812 387.53125 L 419.539062 396.078125 L 410.097656 397.453125 L 416.917969 404.109375 L 415.308594 413.511719 L 423.757812 409.074219 L 432.1875 413.511719 L 432.1875 413.503906 L 432.195312 413.503906 L 430.585938 404.109375 L 437.40625 397.453125 " fill-opacity="1" fill-rule="nonzero"/><path fill="#ffffff" d="M 437.40625 456.664062 L 429.894531 455.570312 L 427.976562 455.296875 L 423.757812 446.742188 L 419.53125 455.296875 L 410.097656 456.664062 L 412.957031 459.453125 L 416.917969 463.324219 L 415.691406 470.496094 L 415.308594 472.71875 L 415.316406 472.71875 L 415.316406 472.726562 L 418.386719 471.101562 L 423.757812 468.28125 L 432.1875 472.71875 L 432.195312 472.726562 L 430.585938 463.324219 L 434.65625 459.347656 L 437.40625 456.664062 " fill-opacity="1" fill-rule="nonzero"/><path fill="#ffffff" d="M 427.976562 514.503906 L 423.757812 505.949219 L 419.53125 514.503906 L 410.097656 515.878906 L 416.917969 522.53125 L 415.316406 531.933594 L 423.757812 527.496094 L 432.195312 531.933594 L 430.585938 522.53125 L 437.40625 515.878906 L 427.976562 514.503906 " fill-opacity="1" fill-rule="nonzero"/><path fill="#ffffff" d="M 423.757812 565.164062 L 419.539062 573.71875 L 410.097656 575.09375 L 416.925781 581.746094 L 415.308594 591.144531 L 423.757812 586.710938 L 432.1875 591.144531 L 430.578125 581.746094 L 437.40625 575.09375 L 427.976562 573.71875 L 423.757812 565.164062 " fill-opacity="1" fill-rule="nonzero"/><path fill="#ffffff" d="M 437.40625 634.300781 L 432.28125 633.5625 L 427.976562 632.933594 L 423.757812 624.378906 L 423.757812 624.386719 L 423.757812 624.378906 L 419.53125 632.933594 L 416.585938 633.359375 L 410.097656 634.300781 L 410.097656 634.308594 L 412.957031 637.097656 L 416.917969 640.957031 L 415.644531 648.410156 L 415.308594 650.359375 L 415.316406 650.359375 L 423.757812 645.921875 L 429.460938 648.921875 L 432.1875 650.359375 L 432.195312 650.359375 L 430.585938 640.957031 L 434.65625 636.988281 L 437.40625 634.308594 L 437.40625 634.300781 " fill-opacity="1" fill-rule="nonzero"/><path fill="#ffffff" d="M 427.976562 692.144531 L 423.757812 683.589844 L 419.53125 692.144531 L 410.097656 693.511719 L 416.917969 700.171875 L 415.316406 709.574219 L 423.757812 705.128906 L 432.195312 709.574219 L 430.585938 700.171875 L 437.40625 693.511719 L 427.976562 692.144531 " fill-opacity="1" fill-rule="nonzero"/><path fill="#ffffff" d="M 416.917969 759.386719 L 415.316406 768.789062 L 423.757812 764.351562 L 432.195312 768.789062 L 430.585938 759.386719 L 437.40625 752.726562 L 427.976562 751.359375 L 423.757812 742.804688 L 419.53125 751.359375 L 410.097656 752.726562 L 416.917969 759.386719 " fill-opacity="1" fill-rule="nonzero"/><g clip-path="url(#d273a62546)"><path fill="#ffffff" d="M 535.585938 28.625 L 544.027344 24.179688 L 552.472656 28.625 L 550.855469 19.222656 L 557.683594 12.566406 L 548.246094 11.199219 L 544.027344 2.644531 L 539.804688 11.199219 L 530.367188 12.566406 L 537.195312 19.222656 L 535.585938 28.625 " fill-opacity="1" fill-rule="nonzero"/></g><path fill="#ffffff" d="M 535.585938 87.839844 L 544.027344 83.402344 L 552.472656 87.839844 L 550.855469 78.4375 L 557.683594 71.777344 L 548.246094 70.402344 L 544.027344 61.855469 L 539.804688 70.402344 L 530.367188 71.777344 L 537.195312 78.4375 L 535.585938 87.839844 " fill-opacity="1" fill-rule="nonzero"/><path fill="#ffffff" d="M 535.578125 147.046875 L 544.027344 142.609375 L 552.464844 147.046875 L 550.855469 137.652344 L 557.683594 130.992188 L 548.246094 129.617188 L 544.027344 121.070312 L 539.796875 129.617188 L 530.367188 130.992188 L 537.1875 137.652344 L 535.578125 147.046875 " fill-opacity="1" fill-rule="nonzero"/><path fill="#ffffff" d="M 544.027344 180.285156 L 539.796875 188.832031 L 530.367188 190.207031 L 537.1875 196.867188 L 535.578125 206.257812 L 544.027344 201.832031 L 552.464844 206.257812 L 550.855469 196.867188 L 557.683594 190.207031 L 548.246094 188.832031 L 544.027344 180.285156 " fill-opacity="1" fill-rule="nonzero"/><path fill="#ffffff" d="M 548.246094 248.046875 L 544.027344 239.5 L 539.804688 248.046875 L 530.367188 249.421875 L 537.195312 256.078125 L 535.585938 265.480469 L 544.027344 261.035156 L 552.472656 265.480469 L 550.855469 256.078125 L 557.683594 249.421875 L 548.246094 248.046875 " fill-opacity="1" fill-rule="nonzero"/><path fill="#ffffff" d="M 537.195312 315.292969 L 535.585938 324.6875 L 544.027344 320.25 L 552.472656 324.6875 L 550.855469 315.292969 L 557.683594 308.625 L 548.246094 307.257812 L 544.027344 298.703125 L 539.804688 307.257812 L 530.367188 308.625 L 537.195312 315.292969 " fill-opacity="1" fill-rule="nonzero"/><path fill="#ffffff" d="M 544.027344 357.925781 L 539.796875 366.472656 L 530.367188 367.847656 L 537.1875 374.5 L 535.578125 383.902344 L 544.027344 379.464844 L 552.464844 383.902344 L 550.855469 374.5 L 557.683594 367.847656 L 548.246094 366.472656 L 544.027344 357.925781 " fill-opacity="1" fill-rule="nonzero"/><path fill="#ffffff" d="M 557.683594 427.054688 L 548.246094 425.679688 L 544.027344 417.140625 L 539.796875 425.679688 L 530.367188 427.054688 L 537.1875 433.714844 L 535.578125 443.113281 L 535.585938 443.105469 L 535.585938 443.113281 L 544.027344 438.679688 L 552.464844 443.113281 L 552.464844 443.105469 L 552.472656 443.113281 L 550.855469 433.714844 L 557.683594 427.054688 " fill-opacity="1" fill-rule="nonzero"/><path fill="#ffffff" d="M 548.246094 484.902344 L 544.027344 476.347656 L 539.804688 484.902344 L 530.367188 486.269531 L 537.195312 492.925781 L 535.585938 502.328125 L 544.027344 497.890625 L 552.472656 502.328125 L 550.855469 492.925781 L 557.683594 486.269531 L 548.246094 484.902344 " fill-opacity="1" fill-rule="nonzero"/><path fill="#ffffff" d="M 544.027344 535.566406 L 539.796875 544.113281 L 530.367188 545.480469 L 537.1875 552.140625 L 535.578125 561.542969 L 544.027344 557.105469 L 552.464844 561.542969 L 550.855469 552.140625 L 557.683594 545.480469 L 548.246094 544.113281 L 544.027344 535.566406 " fill-opacity="1" fill-rule="nonzero"/><path fill="#ffffff" d="M 544.027344 594.773438 L 539.796875 603.320312 L 530.367188 604.695312 L 537.1875 611.355469 L 535.578125 620.75 L 544.027344 616.320312 L 552.464844 620.75 L 550.855469 611.355469 L 557.683594 604.695312 L 548.246094 603.320312 L 544.027344 594.773438 " fill-opacity="1" fill-rule="nonzero"/><path fill="#ffffff" d="M 548.246094 662.542969 L 544.027344 653.988281 L 539.804688 662.542969 L 530.367188 663.910156 L 537.195312 670.570312 L 535.585938 679.96875 L 544.027344 675.527344 L 552.472656 679.96875 L 550.855469 670.570312 L 557.683594 663.910156 L 548.246094 662.542969 " fill-opacity="1" fill-rule="nonzero"/><path fill="#ffffff" d="M 537.195312 729.78125 L 535.585938 739.183594 L 544.027344 734.738281 L 552.472656 739.183594 L 550.855469 729.78125 L 557.683594 723.125 L 548.246094 721.75 L 544.027344 713.203125 L 539.804688 721.75 L 530.367188 723.125 L 537.195312 729.78125 " fill-opacity="1" fill-rule="nonzero"/><path fill="#ffffff" d="M 495.066406 58.226562 L 503.511719 53.792969 L 511.960938 58.226562 L 510.34375 48.835938 L 517.164062 42.167969 L 507.734375 40.808594 L 503.511719 32.246094 L 499.285156 40.808594 L 489.847656 42.167969 L 496.675781 48.835938 L 495.066406 58.226562 " fill-opacity="1" fill-rule="nonzero"/><path fill="#ffffff" d="M 495.066406 117.441406 L 503.511719 113.003906 L 511.960938 117.441406 L 510.34375 108.039062 L 517.164062 101.390625 L 507.734375 100.015625 L 503.511719 91.460938 L 499.285156 100.015625 L 489.847656 101.390625 L 496.675781 108.039062 L 495.066406 117.441406 " fill-opacity="1" fill-rule="nonzero"/><path fill="#ffffff" d="M 495.066406 176.65625 L 503.511719 172.21875 L 511.953125 176.65625 L 510.335938 167.253906 L 517.171875 160.597656 L 507.742188 159.226562 L 503.511719 150.675781 L 499.285156 159.226562 L 489.847656 160.597656 L 496.683594 167.253906 L 495.066406 176.65625 " fill-opacity="1" fill-rule="nonzero"/><path fill="#ffffff" d="M 517.164062 219.808594 L 507.742188 218.441406 L 503.511719 209.886719 L 499.285156 218.441406 L 489.847656 219.808594 L 489.855469 219.808594 L 489.847656 219.808594 L 496.675781 226.46875 L 495.402344 233.917969 L 495.066406 235.871094 L 503.511719 231.433594 L 511.953125 235.871094 L 511.953125 235.863281 L 511.960938 235.871094 L 510.34375 226.46875 L 517.171875 219.808594 L 517.164062 219.808594 " fill-opacity="1" fill-rule="nonzero"/><path fill="#ffffff" d="M 507.734375 277.65625 L 503.511719 269.101562 L 499.285156 277.65625 L 489.847656 279.023438 L 496.675781 285.683594 L 495.066406 295.085938 L 503.511719 290.640625 L 511.960938 295.085938 L 510.34375 285.683594 L 517.164062 279.023438 L 507.734375 277.65625 " fill-opacity="1" fill-rule="nonzero"/><path fill="#ffffff" d="M 496.675781 344.894531 L 495.066406 354.296875 L 503.511719 349.859375 L 511.960938 354.296875 L 510.34375 344.894531 L 517.164062 338.238281 L 507.734375 336.871094 L 503.511719 328.316406 L 499.285156 336.871094 L 489.847656 338.238281 L 496.675781 344.894531 " fill-opacity="1" fill-rule="nonzero"/><path fill="#ffffff" d="M 517.164062 397.453125 L 507.742188 396.078125 L 503.511719 387.53125 L 499.285156 396.078125 L 489.847656 397.453125 L 489.855469 397.453125 L 489.847656 397.453125 L 496.675781 404.109375 L 495.066406 413.511719 L 503.511719 409.074219 L 511.953125 413.511719 L 511.953125 413.503906 L 511.960938 413.503906 L 510.34375 404.109375 L 517.171875 397.453125 L 517.164062 397.453125 " fill-opacity="1" fill-rule="nonzero"/><path fill="#ffffff" d="M 517.164062 456.664062 L 509.652344 455.570312 L 507.742188 455.296875 L 503.511719 446.742188 L 499.285156 455.296875 L 489.847656 456.664062 L 489.855469 456.664062 L 489.847656 456.664062 L 492.714844 459.453125 L 496.675781 463.324219 L 495.457031 470.496094 L 495.066406 472.71875 L 495.066406 472.726562 L 498.144531 471.101562 L 503.511719 468.28125 L 511.953125 472.71875 L 511.960938 472.726562 L 510.34375 463.324219 L 514.414062 459.347656 L 517.171875 456.664062 L 517.164062 456.664062 " fill-opacity="1" fill-rule="nonzero"/><path fill="#ffffff" d="M 507.734375 514.503906 L 503.511719 505.949219 L 499.285156 514.503906 L 489.847656 515.878906 L 496.675781 522.53125 L 495.066406 531.933594 L 503.511719 527.496094 L 511.960938 531.933594 L 510.34375 522.53125 L 517.164062 515.878906 L 507.734375 514.503906 " fill-opacity="1" fill-rule="nonzero"/><path fill="#ffffff" d="M 503.511719 565.164062 L 499.285156 573.71875 L 489.847656 575.09375 L 496.683594 581.746094 L 495.066406 591.144531 L 503.511719 586.710938 L 511.953125 591.144531 L 510.335938 581.746094 L 517.171875 575.09375 L 507.742188 573.71875 L 503.511719 565.164062 " fill-opacity="1" fill-rule="nonzero"/><path fill="#ffffff" d="M 517.164062 634.300781 L 512.039062 633.5625 L 507.742188 632.933594 L 503.511719 624.378906 L 503.511719 624.386719 L 503.511719 624.378906 L 499.285156 632.933594 L 496.34375 633.359375 L 489.847656 634.300781 L 489.855469 634.300781 L 489.847656 634.308594 L 492.714844 637.097656 L 496.675781 640.957031 L 495.402344 648.410156 L 495.066406 650.359375 L 503.511719 645.921875 L 509.214844 648.921875 L 511.953125 650.359375 L 511.960938 650.359375 L 510.34375 640.957031 L 514.414062 636.988281 L 517.171875 634.308594 L 517.164062 634.308594 L 517.164062 634.300781 " fill-opacity="1" fill-rule="nonzero"/><path fill="#ffffff" d="M 507.734375 692.144531 L 503.511719 683.589844 L 499.285156 692.144531 L 489.847656 693.511719 L 496.675781 700.171875 L 495.066406 709.574219 L 503.511719 705.128906 L 511.960938 709.574219 L 510.34375 700.171875 L 517.164062 693.511719 L 507.734375 692.144531 " fill-opacity="1" fill-rule="nonzero"/><path fill="#ffffff" d="M 496.675781 759.386719 L 495.066406 768.789062 L 503.511719 764.351562 L 511.960938 768.789062 L 510.34375 759.386719 L 517.164062 752.726562 L 507.734375 751.359375 L 503.511719 742.804688 L 499.285156 751.359375 L 489.847656 752.726562 L 496.675781 759.386719 " fill-opacity="1" fill-rule="nonzero"/><g clip-path="url(#734e382265)"><path fill="#ffffff" d="M 574.824219 58.226562 L 583.261719 53.792969 L 591.707031 58.226562 L 590.101562 48.835938 L 596.921875 42.167969 L 587.488281 40.808594 L 583.261719 32.246094 L 579.042969 40.808594 L 569.613281 42.167969 L 576.433594 48.835938 L 574.824219 58.226562 " fill-opacity="1" fill-rule="nonzero"/></g><g clip-path="url(#f0b95daadb)"><path fill="#ffffff" d="M 574.824219 117.441406 L 583.261719 113.003906 L 591.707031 117.441406 L 590.101562 108.039062 L 596.921875 101.390625 L 587.488281 100.015625 L 583.261719 91.460938 L 579.042969 100.015625 L 569.613281 101.390625 L 576.433594 108.039062 L 574.824219 117.441406 " fill-opacity="1" fill-rule="nonzero"/></g><g clip-path="url(#bbcf238f0c)"><path fill="#ffffff" d="M 574.824219 176.65625 L 583.269531 172.21875 L 591.707031 176.65625 L 590.09375 167.253906 L 596.921875 160.597656 L 587.488281 159.226562 L 583.269531 150.675781 L 579.042969 159.226562 L 569.605469 160.597656 L 576.441406 167.253906 L 574.824219 176.65625 " fill-opacity="1" fill-rule="nonzero"/></g><g clip-path="url(#0fcb5af88c)"><path fill="#ffffff" d="M 596.921875 219.808594 L 587.488281 218.441406 L 583.269531 209.886719 L 583.261719 209.886719 L 579.042969 218.441406 L 569.613281 219.808594 L 569.605469 219.808594 L 576.433594 226.46875 L 575.160156 233.917969 L 574.824219 235.871094 L 583.261719 231.433594 L 591.707031 235.871094 L 591.703125 235.863281 L 591.707031 235.871094 L 590.101562 226.46875 L 596.921875 219.808594 " fill-opacity="1" fill-rule="nonzero"/></g><g clip-path="url(#3d54a0f7ca)"><path fill="#ffffff" d="M 587.488281 277.65625 L 583.261719 269.101562 L 579.042969 277.65625 L 569.613281 279.023438 L 576.433594 285.683594 L 574.824219 295.085938 L 583.261719 290.640625 L 591.707031 295.085938 L 590.101562 285.683594 L 596.921875 279.023438 L 587.488281 277.65625 " fill-opacity="1" fill-rule="nonzero"/></g><g clip-path="url(#00723e05e3)"><path fill="#ffffff" d="M 576.433594 344.894531 L 574.824219 354.296875 L 583.261719 349.859375 L 591.707031 354.296875 L 590.101562 344.894531 L 596.921875 338.238281 L 587.488281 336.871094 L 583.261719 328.316406 L 579.042969 336.871094 L 569.613281 338.238281 L 576.433594 344.894531 " fill-opacity="1" fill-rule="nonzero"/></g><g clip-path="url(#54a04ee593)"><path fill="#ffffff" d="M 596.921875 397.453125 L 587.488281 396.078125 L 583.269531 387.53125 L 583.261719 387.53125 L 579.042969 396.078125 L 569.613281 397.453125 L 569.605469 397.453125 L 576.433594 404.109375 L 574.824219 413.511719 L 583.261719 409.074219 L 591.707031 413.511719 L 591.703125 413.503906 L 591.707031 413.503906 L 590.101562 404.109375 L 596.921875 397.453125 " fill-opacity="1" fill-rule="nonzero"/></g><g clip-path="url(#d03c6853f2)"><path fill="#ffffff" d="M 596.921875 456.664062 L 589.402344 455.570312 L 587.488281 455.296875 L 583.269531 446.742188 L 583.261719 446.742188 L 579.042969 455.296875 L 569.613281 456.664062 L 569.605469 456.664062 L 572.472656 459.453125 L 576.433594 463.324219 L 575.207031 470.496094 L 574.824219 472.71875 L 574.824219 472.726562 L 577.910156 471.101562 L 583.269531 468.28125 L 591.707031 472.71875 L 591.707031 472.726562 L 590.101562 463.324219 L 594.171875 459.347656 L 596.921875 456.664062 " fill-opacity="1" fill-rule="nonzero"/></g><g clip-path="url(#839cb11374)"><path fill="#ffffff" d="M 587.488281 514.503906 L 583.261719 505.949219 L 579.042969 514.503906 L 569.613281 515.878906 L 576.433594 522.53125 L 574.824219 531.933594 L 583.261719 527.496094 L 591.707031 531.933594 L 590.101562 522.53125 L 596.921875 515.878906 L 587.488281 514.503906 " fill-opacity="1" fill-rule="nonzero"/></g><g clip-path="url(#59e5e38acf)"><path fill="#ffffff" d="M 583.269531 565.164062 L 579.042969 573.71875 L 569.605469 575.09375 L 576.441406 581.746094 L 574.824219 591.144531 L 583.269531 586.710938 L 591.707031 591.144531 L 590.09375 581.746094 L 596.921875 575.09375 L 587.488281 573.71875 L 583.269531 565.164062 " fill-opacity="1" fill-rule="nonzero"/></g><g clip-path="url(#55b2f73391)"><path fill="#ffffff" d="M 596.921875 634.300781 L 591.792969 633.5625 L 587.488281 632.933594 L 583.269531 624.378906 L 583.261719 624.386719 L 583.261719 624.378906 L 579.042969 632.933594 L 576.097656 633.359375 L 569.613281 634.300781 L 569.605469 634.308594 L 572.472656 637.097656 L 576.433594 640.957031 L 575.160156 648.410156 L 574.824219 650.359375 L 583.261719 645.921875 L 588.972656 648.921875 L 591.707031 650.359375 L 591.703125 650.359375 L 591.707031 650.359375 L 590.101562 640.957031 L 594.171875 636.988281 L 596.921875 634.308594 L 596.921875 634.300781 " fill-opacity="1" fill-rule="nonzero"/></g><g clip-path="url(#a41855cea6)"><path fill="#ffffff" d="M 587.488281 692.144531 L 583.261719 683.589844 L 579.042969 692.144531 L 569.613281 693.511719 L 576.433594 700.171875 L 574.824219 709.574219 L 583.261719 705.128906 L 591.707031 709.574219 L 590.101562 700.171875 L 596.921875 693.511719 L 587.488281 692.144531 " fill-opacity="1" fill-rule="nonzero"/></g><g clip-path="url(#c380f43dd1)"><path fill="#ffffff" d="M 576.433594 759.386719 L 574.824219 768.789062 L 583.261719 764.351562 L 591.707031 768.789062 L 590.101562 759.386719 L 596.921875 752.726562 L 587.488281 751.359375 L 583.261719 742.804688 L 579.042969 751.359375 L 569.613281 752.726562 L 576.433594 759.386719 " fill-opacity="1" fill-rule="nonzero"/></g><g clip-path="url(#66e28ddd86)"><path fill="#ffffff" d="M 58.644531 789.105469 L 57.042969 798.507812 L 65.480469 794.0625 L 73.925781 798.507812 L 72.304688 789.105469 L 79.132812 782.445312 L 69.699219 781.070312 L 65.480469 772.523438 L 61.261719 781.070312 L 51.820312 782.445312 L 58.644531 789.105469 " fill-opacity="1" fill-rule="nonzero"/></g><g clip-path="url(#19d3c7efd2)"><path fill="#ffffff" d="M 138.410156 789.105469 L 136.792969 798.507812 L 145.238281 794.0625 L 153.683594 798.507812 L 152.0625 789.105469 L 158.890625 782.445312 L 149.457031 781.070312 L 145.238281 772.523438 L 141.011719 781.070312 L 131.570312 782.445312 L 138.410156 789.105469 " fill-opacity="1" fill-rule="nonzero"/></g><g clip-path="url(#a075a0fb4e)"><path fill="#ffffff" d="M 218.167969 789.105469 L 216.558594 798.507812 L 224.996094 794.0625 L 233.433594 798.507812 L 231.824219 789.105469 L 238.648438 782.445312 L 229.214844 781.070312 L 224.996094 772.523438 L 220.769531 781.070312 L 211.335938 782.445312 L 218.167969 789.105469 " fill-opacity="1" fill-rule="nonzero"/></g><g clip-path="url(#a513ce2b60)"><path fill="#ffffff" d="M 297.917969 789.105469 L 296.316406 798.507812 L 304.753906 794.0625 L 313.199219 798.507812 L 311.582031 789.105469 L 318.414062 782.445312 L 308.972656 781.070312 L 304.753906 772.523438 L 300.535156 781.070312 L 291.09375 782.445312 L 297.917969 789.105469 " fill-opacity="1" fill-rule="nonzero"/></g><g clip-path="url(#2af8012688)"><path fill="#ffffff" d="M 377.679688 789.105469 L 376.066406 798.507812 L 384.511719 794.0625 L 392.957031 798.507812 L 391.339844 789.105469 L 398.171875 782.445312 L 388.730469 781.070312 L 384.511719 772.523438 L 380.285156 781.070312 L 370.851562 782.445312 L 377.679688 789.105469 " fill-opacity="1" fill-rule="nonzero"/></g><g clip-path="url(#642f6eaa8c)"><path fill="#ffffff" d="M 457.4375 789.105469 L 455.832031 798.507812 L 464.269531 794.0625 L 472.707031 798.507812 L 471.097656 789.105469 L 477.917969 782.445312 L 468.488281 781.070312 L 464.269531 772.523438 L 460.050781 781.070312 L 450.609375 782.445312 L 457.4375 789.105469 " fill-opacity="1" fill-rule="nonzero"/></g><g clip-path="url(#77f2a07f3a)"><path fill="#ffffff" d="M 537.195312 789.105469 L 535.585938 798.507812 L 544.027344 794.0625 L 552.472656 798.507812 L 550.855469 789.105469 L 557.683594 782.445312 L 548.246094 781.070312 L 544.027344 772.523438 L 539.804688 781.070312 L 530.367188 782.445312 L 537.195312 789.105469 " fill-opacity="1" fill-rule="nonzero"/></g></g></g></g></g><g clip-path="url(#760b27f7c4)"><path fill="#681f98" d="M 570.8125 712.507812 L 570.8125 703.722656 L 618.101562 729.472656 L 618.101562 738.257812 Z M 570.8125 712.507812 " fill-opacity="1" fill-rule="nonzero"/></g><g clip-path="url(#1d8a6e7109)"><path fill="#681f98" d="M 570.8125 677.066406 L 570.8125 668.28125 L 618.101562 694.039062 L 618.101562 702.824219 Z M 570.8125 677.066406 " fill-opacity="1" fill-rule="nonzero"/></g><g clip-path="url(#ad972b2077)"><path fill="#681f98" d="M 570.8125 641.628906 L 570.8125 632.84375 L 618.101562 658.597656 L 618.101562 667.382812 Z M 570.8125 641.628906 " fill-opacity="1" fill-rule="nonzero"/></g><g clip-path="url(#f8bb10e471)"><path fill="#681f98" d="M 570.8125 606.1875 L 570.8125 597.402344 L 618.101562 623.15625 L 618.101562 631.941406 Z M 570.8125 606.1875 " fill-opacity="1" fill-rule="nonzero"/></g><g clip-path="url(#58b9abbde8)"><path fill="#681f98" d="M 570.8125 570.75 L 570.8125 561.964844 L 618.101562 587.714844 L 618.101562 596.503906 Z M 570.8125 570.75 " fill-opacity="1" fill-rule="nonzero"/></g><g clip-path="url(#88dfc5931c)"><path fill="#681f98" d="M 570.8125 535.3125 L 570.8125 526.527344 L 618.101562 552.28125 L 618.101562 561.066406 Z M 570.8125 535.3125 " fill-opacity="1" fill-rule="nonzero"/></g><g clip-path="url(#5284c9447f)"><path fill="#681f98" d="M 570.8125 499.875 L 570.8125 491.089844 L 618.101562 516.839844 L 618.101562 525.625 Z M 570.8125 499.875 " fill-opacity="1" fill-rule="nonzero"/></g></svg>